<mxfile host="app.diagrams.net" modified="2022-06-10T10:52:29.199Z" agent="5.0 (Macintosh)" etag="eAZQePLkgR7HQKOobtjK" version="19.0.3" type="github">
  <diagram id="F-V4iub-xEMUrGQdiBXC" name="Page-1">
    <mxGraphModel dx="1234" dy="756" grid="1" gridSize="10" guides="1" tooltips="1" connect="1" arrows="1" fold="1" page="1" pageScale="1" pageWidth="827" pageHeight="1169" math="0" shadow="0">
      <root>
        <mxCell id="0" />
        <mxCell id="1" parent="0" />
        <mxCell id="TK7Jv7AhH8hMzQ-9n5MK-1" value="" style="rounded=0;whiteSpace=wrap;html=1;" vertex="1" parent="1">
          <mxGeometry x="95" y="30" width="315" height="110" as="geometry" />
        </mxCell>
        <mxCell id="938kn5CyjTizg_Fpwi8q-3" value="" style="edgeStyle=orthogonalEdgeStyle;rounded=0;orthogonalLoop=1;jettySize=auto;html=1;" parent="1" source="938kn5CyjTizg_Fpwi8q-1" target="938kn5CyjTizg_Fpwi8q-2" edge="1">
          <mxGeometry relative="1" as="geometry" />
        </mxCell>
        <mxCell id="938kn5CyjTizg_Fpwi8q-4" value="&lt;div&gt;was&lt;/div&gt;" style="edgeLabel;html=1;align=center;verticalAlign=middle;resizable=0;points=[];" parent="938kn5CyjTizg_Fpwi8q-3" vertex="1" connectable="0">
          <mxGeometry x="-0.1429" y="2" relative="1" as="geometry">
            <mxPoint as="offset" />
          </mxGeometry>
        </mxCell>
        <mxCell id="938kn5CyjTizg_Fpwi8q-1" value="osh" style="shape=umlActor;verticalLabelPosition=bottom;verticalAlign=top;html=1;outlineConnect=0;" parent="1" vertex="1">
          <mxGeometry x="140" y="50" width="30" height="60" as="geometry" />
        </mxCell>
        <mxCell id="938kn5CyjTizg_Fpwi8q-2" value="here" style="rounded=0;whiteSpace=wrap;html=1;" parent="1" vertex="1">
          <mxGeometry x="240" y="50" width="120" height="60" as="geometry" />
        </mxCell>
      </root>
    </mxGraphModel>
  </diagram>
</mxfile>
